# xmcd
#
# Track frame offsets: 
#        150
#        26067
#        50287
#        68722
#        91362
#        106005
#        129072
#        152237
#        178860
#        199995
#
# Disc length: 2959 seconds
#
# Revision: 2
# Processed by: cddbd v1.5.1PL0 Copyright (c) Steve Scherf et al.
# Submitted via: ExactAudioCopy v0.90b4
#
DISCID=7e0b8d0a
DTITLE=Johnny Neel and The Last Word - Comin' Atcha...Live!
DYEAR=1995
DGENRE=Jazz+Funk
TTITLE0=Society Hill
TTITLE1=Just My Style
TTITLE2=Maydell
TTITLE3=Read Me My Rights
TTITLE4=Lost The Will
TTITLE5=What Am I
TTITLE6=Bless My Soul
TTITLE7=Turn On Your Love
TTITLE8=Blues Ain't Nothin'
TTITLE9=Easy Come, Easy Go
EXTD=
EXTT0=
EXTT1=
EXTT2=
EXTT3=
EXTT4=
EXTT5=
EXTT6=
EXTT7=
EXTT8=
EXTT9=
PLAYORDER=
